<svg width="17" height="16" viewBox="0 0 17 16" fill="none" xmlns="https://www.w3.org/2000/svg">
<path d="M5.65759 5.33325V4.24235C5.65759 2.6357 7.00074 1.33325 8.65759 1.33325C10.3145 1.33325 11.6576 2.6357 11.6576 4.24235V5.33325" stroke="#F3F2EB" stroke-width="1.5"/>
<path d="M9.91201 5H7.40321C4.81077 5 3.80795 5.65864 3.09101 8.1582C2.44526 10.4096 2.12239 11.5353 2.45996 12.4083C2.66669 12.9429 3.03373 13.4065 3.51461 13.7403C5.25388 14.9477 11.9819 15.0029 13.8006 13.7403C14.2815 13.4065 14.6485 12.9429 14.8553 12.4083C15.1928 11.5353 14.8699 10.4096 14.2242 8.1582C13.5358 5.75815 12.6118 5 9.91201 5Z" stroke="#F3F2EB" stroke-width="1.5"/>
<path d="M7.99091 7.33325H9.32424" stroke="#F3F2EB" stroke-width="1.5" stroke-linecap="round"/>
</svg>
